<mxfile host="app.diagrams.net" agent="Mozilla/5.0 (Macintosh; Intel Mac OS X 10_15_7) AppleWebKit/605.1.15 (KHTML, like Gecko) Version/18.0.1 Safari/605.1.15" version="24.8.4">
  <diagram name="Page-1" id="QogzQEzQDXJAw6qJvk3f">
    <mxGraphModel dx="1298" dy="1307" grid="1" gridSize="10" guides="1" tooltips="1" connect="1" arrows="1" fold="1" page="1" pageScale="1" pageWidth="1700" pageHeight="1100" math="0" shadow="0">
      <root>
        <mxCell id="0" />
        <mxCell id="1" parent="0" />
        <mxCell id="cOqGHNcGwg7gMK3qyeyV-2" value="Menu" style="rounded=0;whiteSpace=wrap;html=1;fillColor=#dae8fc;strokeColor=#6c8ebf;" vertex="1" parent="1">
          <mxGeometry x="400" y="280" width="150" height="510" as="geometry" />
        </mxCell>
        <mxCell id="cOqGHNcGwg7gMK3qyeyV-1" value="" style="rounded=0;whiteSpace=wrap;html=1;" vertex="1" parent="1">
          <mxGeometry x="550" y="280" width="780" height="510" as="geometry" />
        </mxCell>
        <mxCell id="cOqGHNcGwg7gMK3qyeyV-3" value="Sprint Name" style="rounded=0;whiteSpace=wrap;html=1;align=left;spacingLeft=10;" vertex="1" parent="1">
          <mxGeometry x="570" y="300" width="220" height="40" as="geometry" />
        </mxCell>
        <mxCell id="cOqGHNcGwg7gMK3qyeyV-4" value="Add Ticket" style="rounded=0;whiteSpace=wrap;html=1;align=center;spacingLeft=0;" vertex="1" parent="1">
          <mxGeometry x="1010" y="300" width="140" height="40" as="geometry" />
        </mxCell>
        <mxCell id="cOqGHNcGwg7gMK3qyeyV-17" style="edgeStyle=orthogonalEdgeStyle;rounded=0;orthogonalLoop=1;jettySize=auto;html=1;" edge="1" parent="1" source="cOqGHNcGwg7gMK3qyeyV-5" target="cOqGHNcGwg7gMK3qyeyV-9">
          <mxGeometry relative="1" as="geometry">
            <Array as="points">
              <mxPoint x="1240" y="380" />
              <mxPoint x="1240" y="380" />
            </Array>
          </mxGeometry>
        </mxCell>
        <mxCell id="cOqGHNcGwg7gMK3qyeyV-5" value="New Column" style="rounded=0;whiteSpace=wrap;html=1;align=center;spacingLeft=0;" vertex="1" parent="1">
          <mxGeometry x="1170" y="300" width="140" height="40" as="geometry" />
        </mxCell>
        <mxCell id="cOqGHNcGwg7gMK3qyeyV-6" value="Todo" style="rounded=0;whiteSpace=wrap;html=1;labelPosition=center;verticalLabelPosition=top;align=left;verticalAlign=bottom;fontSize=16;" vertex="1" parent="1">
          <mxGeometry x="570" y="390" width="170" height="380" as="geometry" />
        </mxCell>
        <mxCell id="cOqGHNcGwg7gMK3qyeyV-7" value="In Progress" style="rounded=0;whiteSpace=wrap;html=1;labelPosition=center;verticalLabelPosition=top;align=left;verticalAlign=bottom;fontSize=16;" vertex="1" parent="1">
          <mxGeometry x="760" y="390" width="170" height="380" as="geometry" />
        </mxCell>
        <mxCell id="cOqGHNcGwg7gMK3qyeyV-8" value="Done" style="rounded=0;whiteSpace=wrap;html=1;labelPosition=center;verticalLabelPosition=top;align=left;verticalAlign=bottom;fontSize=16;" vertex="1" parent="1">
          <mxGeometry x="950" y="390" width="170" height="380" as="geometry" />
        </mxCell>
        <mxCell id="cOqGHNcGwg7gMK3qyeyV-9" value="" style="rounded=0;whiteSpace=wrap;html=1;labelPosition=center;verticalLabelPosition=top;align=left;verticalAlign=bottom;fontSize=16;fillColor=#f5f5f5;fontColor=#333333;strokeColor=#666666;" vertex="1" parent="1">
          <mxGeometry x="1140" y="390" width="170" height="380" as="geometry" />
        </mxCell>
        <mxCell id="cOqGHNcGwg7gMK3qyeyV-15" style="edgeStyle=orthogonalEdgeStyle;rounded=0;orthogonalLoop=1;jettySize=auto;html=1;" edge="1" parent="1" source="cOqGHNcGwg7gMK3qyeyV-10" target="cOqGHNcGwg7gMK3qyeyV-14">
          <mxGeometry relative="1" as="geometry" />
        </mxCell>
        <mxCell id="cOqGHNcGwg7gMK3qyeyV-10" value="Ticket" style="rounded=0;whiteSpace=wrap;html=1;" vertex="1" parent="1">
          <mxGeometry x="590" y="410" width="130" height="60" as="geometry" />
        </mxCell>
        <mxCell id="cOqGHNcGwg7gMK3qyeyV-11" value="Ticket" style="rounded=0;whiteSpace=wrap;html=1;" vertex="1" parent="1">
          <mxGeometry x="590" y="570" width="130" height="60" as="geometry" />
        </mxCell>
        <mxCell id="cOqGHNcGwg7gMK3qyeyV-13" value="Ticket" style="rounded=0;whiteSpace=wrap;html=1;" vertex="1" parent="1">
          <mxGeometry x="590" y="490" width="130" height="60" as="geometry" />
        </mxCell>
        <mxCell id="cOqGHNcGwg7gMK3qyeyV-18" style="edgeStyle=orthogonalEdgeStyle;rounded=0;orthogonalLoop=1;jettySize=auto;html=1;" edge="1" parent="1" source="cOqGHNcGwg7gMK3qyeyV-14" target="cOqGHNcGwg7gMK3qyeyV-16">
          <mxGeometry relative="1" as="geometry" />
        </mxCell>
        <mxCell id="cOqGHNcGwg7gMK3qyeyV-14" value="Ticket" style="rounded=0;whiteSpace=wrap;html=1;" vertex="1" parent="1">
          <mxGeometry x="970" y="410" width="130" height="60" as="geometry" />
        </mxCell>
        <mxCell id="cOqGHNcGwg7gMK3qyeyV-21" style="edgeStyle=orthogonalEdgeStyle;rounded=0;orthogonalLoop=1;jettySize=auto;html=1;" edge="1" parent="1" source="cOqGHNcGwg7gMK3qyeyV-16" target="cOqGHNcGwg7gMK3qyeyV-20">
          <mxGeometry relative="1" as="geometry">
            <Array as="points">
              <mxPoint x="1610" y="500" />
            </Array>
          </mxGeometry>
        </mxCell>
        <mxCell id="cOqGHNcGwg7gMK3qyeyV-16" value="Draggable" style="rounded=0;whiteSpace=wrap;html=1;" vertex="1" parent="1">
          <mxGeometry x="1410" y="470" width="120" height="60" as="geometry" />
        </mxCell>
        <mxCell id="cOqGHNcGwg7gMK3qyeyV-19" value="&lt;b&gt;Requirements&lt;/b&gt;&lt;div&gt;&lt;br&gt;&lt;/div&gt;&lt;div&gt;&lt;u&gt;Functional&lt;/u&gt;&lt;/div&gt;&lt;div&gt;&lt;ul&gt;&lt;li&gt;Managing existing sprint&lt;/li&gt;&lt;li&gt;Create new tickets&lt;/li&gt;&lt;li&gt;Re-order the tickets by columns&lt;/li&gt;&lt;li&gt;Ticket can only be assigned to one user at a time&lt;/li&gt;&lt;/ul&gt;&lt;div&gt;Don&#39;t worry about&lt;/div&gt;&lt;/div&gt;&lt;div&gt;&lt;ul&gt;&lt;li&gt;Filtering tickets by author&lt;/li&gt;&lt;li&gt;Completing sprint&lt;/li&gt;&lt;li&gt;Searching, etc.&lt;/li&gt;&lt;/ul&gt;&lt;div&gt;&lt;u&gt;Non-Functional&lt;/u&gt;&lt;/div&gt;&lt;/div&gt;&lt;div&gt;&lt;ul&gt;&lt;li&gt;SSR vs CSR&lt;/li&gt;&lt;li&gt;Responsive design&lt;/li&gt;&lt;li&gt;Give the illusion of real time&lt;/li&gt;&lt;li&gt;Provide loaders&lt;/li&gt;&lt;li&gt;A11y friendly&lt;/li&gt;&lt;li&gt;Internationalization&lt;/li&gt;&lt;li&gt;Observability/tracking&lt;/li&gt;&lt;li&gt;Performant&lt;/li&gt;&lt;/ul&gt;&lt;div&gt;Edge Cases&lt;/div&gt;&lt;/div&gt;&lt;div&gt;&lt;ul&gt;&lt;li&gt;Support creating a new ticket&lt;/li&gt;&lt;li&gt;Support infinite scrolling using an intersection observer&lt;/li&gt;&lt;li&gt;Drag-and-drop tickets&lt;/li&gt;&lt;/ul&gt;&lt;/div&gt;" style="rounded=0;whiteSpace=wrap;html=1;fillColor=#dae8fc;strokeColor=#6c8ebf;verticalAlign=top;align=left;spacingLeft=10;spacing=10;spacingTop=0;fontSize=14;" vertex="1" parent="1">
          <mxGeometry x="40" y="280" width="280" height="650" as="geometry" />
        </mxCell>
        <mxCell id="cOqGHNcGwg7gMK3qyeyV-20" value="&lt;font style=&quot;font-size: 14px;&quot;&gt;&lt;b&gt;Ticket Use Cases&lt;/b&gt;&lt;/font&gt;&lt;div style=&quot;font-size: 14px;&quot;&gt;&lt;ul style=&quot;font-size: 14px;&quot;&gt;&lt;li style=&quot;font-size: 14px;&quot;&gt;If a new ticket is created, it should be the last item in the In Progress column&lt;/li&gt;&lt;li style=&quot;font-size: 14px;&quot;&gt;We need to maintain ticket vertical positioning within the column&lt;/li&gt;&lt;li style=&quot;font-size: 14px;&quot;&gt;If a ticket is moved from one column to another, we remove that ticket from the previous column and append it to the end of the list of tickets for the new column&lt;/li&gt;&lt;/ul&gt;&lt;/div&gt;" style="rounded=0;whiteSpace=wrap;html=1;align=left;verticalAlign=top;spacing=10;fontSize=14;" vertex="1" parent="1">
          <mxGeometry x="1440" y="230" width="340" height="190" as="geometry" />
        </mxCell>
      </root>
    </mxGraphModel>
  </diagram>
</mxfile>
